<svg width="22" height="21" viewBox="0 0 22 21" fill="none" xmlns="http://www.w3.org/2000/svg"><path d="M5.54736 21H1.19267V6.97969H5.54736V21ZM3.36767 5.06719C1.97548 5.06719 0.845795 3.91406 0.845795 2.52187C0.845795 1.12969 1.97548 0 3.36767 0C4.75986 0 5.88954 1.12969 5.88954 2.52187C5.88954 3.91406 4.75986 5.06719 3.36767 5.06719ZM21.8458 21H17.5005V14.175C17.5005 12.5484 17.4677 10.4625 15.2364 10.4625C12.9724 10.4625 12.6255 12.2297 12.6255 14.0578V21H8.27548V6.97969H12.452V8.89219H12.513C13.0942 7.79062 14.5145 6.62812 16.6333 6.62812C21.0395 6.62812 21.8505 9.52969 21.8505 13.2984V21H21.8458Z" fill="white"></path></svg>